<?xml version="1.0" standalone="no"?><!DOCTYPE svg PUBLIC "-//W3C//DTD SVG 1.1//EN" "http://www.w3.org/Graphics/SVG/1.1/DTD/svg11.dtd"><svg t="1633237122945" class="icon" viewBox="0 0 1024 1024" version="1.1" xmlns="http://www.w3.org/2000/svg" p-id="10126" xmlns:xlink="http://www.w3.org/1999/xlink" width="200" height="200"><defs><style type="text/css"></style></defs><path d="M745.672 47.308C485.886-86.442 86.758 73.522 164.428 408.29L125.5 455.402l-68.796 125.956 66.938 53.176-2.782 89.48 26.744 38.302s-31.852 119.66 16.824 136.656c90.808 31.68 197.752 16.058 197.752 16.058l5.328 108.852h451.74s-44.676-225.636 23.184-321.428c67.89-95.85 289.34-456.378-96.76-655.146z" fill="#594d9c" p-id="10127"></path><path d="M791.944 405.352c0 129.596-105.04 234.62-234.604 234.62-129.58 0-234.62-105.024-234.62-234.62 0-129.564 105.04-234.602 234.62-234.602 129.564 0 234.604 105.038 234.604 234.602z" fill="#594d9c" p-id="10128"></path><path d="M578.678 403.976v-41.272h42.648c11.778 0 21.338-9.56 21.338-21.338s-9.56-21.308-21.338-21.308h-42.648V298.72c0-11.778-9.558-21.338-21.338-21.338s-21.338 9.56-21.338 21.338v21.338h-10.67c-36.806 0-48.616 15.058-52.036 27.712-6.452 23.87 14.076 50.208 62.706 80.324v41.242h-42.664c-11.778 0-21.324 9.56-21.324 21.338s9.544 21.338 21.324 21.338h42.664c0 11.78 9.558 21.308 21.338 21.308s21.338-9.53 21.338-21.308h10.656c36.802 0 48.614-15.09 52.018-27.71 6.466-23.87-14.06-50.208-62.674-80.326z m-42.676-27.556c-7.078-5.436-12.076-9.998-15.418-13.59a104.946 104.946 0 0 1 4.748-0.124h10.67v13.714z m53.332 92.916h-10.656v-13.716c7.062 5.436 12.06 10.03 15.404 13.59-1.406 0.096-2.968 0.126-4.748 0.126z" fill="#594d9c" p-id="10129"></path></svg>